<svg width="108" height="108" viewBox="0 0 108 108" fill="none" xmlns="http://www.w3.org/2000/svg">
<path d="M15.2609 108V69.1261H0V59.4454H15.2609V47.042H0V37.3614H15.2609V0H35.6087L54.1956 37.3614H77.2826V0H92.7391V37.3614H108V47.042H92.7391V59.4454H108V69.1261H92.7391V108H72.1956L53.6087 69.1261H30.5217V108H15.2609ZM30.5217 59.4454H48.913L43.0435 47.042H30.1304L30.5217 59.4454ZM77.2826 86.6723H78.0652L77.4783 69.1261H69.2609L77.2826 86.6723ZM30.1304 37.3614H38.3478L30.1304 18.605H29.3478L30.1304 37.3614ZM64.5652 59.4454H77.6739L77.2826 47.042H58.6956L64.5652 59.4454Z" fill="url(#paint0_linear_161_178)"/>
<defs>
<linearGradient id="paint0_linear_161_178" x1="54" y1="0" x2="54" y2="108" gradientUnits="userSpaceOnUse">
<stop stop-color="#18A1FF"/>
<stop offset="1" stop-color="#5FBDFF"/>
</linearGradient>
</defs>
</svg>
